<mxfile host="app.diagrams.net" modified="2024-04-11T12:52:58.050Z" agent="Mozilla/5.0 (Windows NT 10.0; Win64; x64) AppleWebKit/537.36 (KHTML, like Gecko) Chrome/123.0.0.0 Safari/537.36" version="24.2.3" etag="iwrS91-K6dPaONl6kjl0" type="github">
  <diagram name="Page-1" id="eLrgEX65ANCT-3otUQEe">
    <mxGraphModel>
      <root>
        <mxCell id="0" />
        <mxCell id="1" parent="0" />
      </root>
    </mxGraphModel>
  </diagram>
</mxfile>
